<mxfile host="app.diagrams.net" modified="2022-12-16T08:21:36.963Z" agent="5.0 (Macintosh; Intel Mac OS X 10_15_7) AppleWebKit/537.36 (KHTML, like Gecko) Chrome/108.0.0.0 Safari/537.36" etag="K1zw-DX9OJgIfPLuOgEH" version="20.6.0" type="github">
  <diagram id="3228e29e-7158-1315-38df-8450db1d8a1d" name="Page-1">
    <mxGraphModel dx="1834" dy="1377" grid="0" gridSize="10" guides="1" tooltips="1" connect="1" arrows="1" fold="1" page="1" pageScale="1" pageWidth="1200" pageHeight="1000" background="#EFF1F3" math="0" shadow="0">
      <root>
        <mxCell id="0" />
        <mxCell id="1" parent="0" />
        <mxCell id="b5SYevpUY-iunILn3kil-1" value="" style="rounded=1;whiteSpace=wrap;html=1;fillColor=none;strokeWidth=5;dashed=1;arcSize=10;strokeColor=#4A919B;" parent="1" vertex="1">
          <mxGeometry x="98" y="46" width="1004" height="270" as="geometry" />
        </mxCell>
        <mxCell id="b5SYevpUY-iunILn3kil-2" value="" style="rounded=1;whiteSpace=wrap;html=1;fillColor=none;strokeWidth=5;dashed=1;arcSize=8;strokeColor=#4A919B;" parent="1" vertex="1">
          <mxGeometry x="98" y="344" width="1005" height="617" as="geometry" />
        </mxCell>
        <mxCell id="b5SYevpUY-iunILn3kil-3" value="&lt;font style=&quot;font-size: 29px;&quot;&gt;socket&lt;/font&gt;" style="rounded=1;whiteSpace=wrap;html=1;strokeColor=none;fillColor=#6DB5A8;" parent="1" vertex="1">
          <mxGeometry x="99" y="297" width="999" height="60" as="geometry" />
        </mxCell>
        <mxCell id="b5SYevpUY-iunILn3kil-4" value="&lt;font style=&quot;font-size: 34px;&quot; color=&quot;#eff1f3&quot;&gt;文件系统&lt;/font&gt;" style="rounded=1;whiteSpace=wrap;html=1;fillColor=#4A919B;strokeColor=none;arcSize=20;" parent="1" vertex="1">
          <mxGeometry x="133" y="391" width="607" height="78.5" as="geometry" />
        </mxCell>
        <mxCell id="b5SYevpUY-iunILn3kil-5" value="&lt;font color=&quot;#4a919b&quot; style=&quot;font-size: 23px;&quot;&gt;用户空间&lt;/font&gt;" style="text;html=1;strokeColor=none;fillColor=none;align=center;verticalAlign=middle;whiteSpace=wrap;rounded=0;dashed=1;strokeWidth=5;fontSize=34;" parent="1" vertex="1">
          <mxGeometry x="551.5" y="53" width="194" height="30" as="geometry" />
        </mxCell>
        <mxCell id="b5SYevpUY-iunILn3kil-6" value="&lt;font style=&quot;font-size: 23px;&quot; color=&quot;#4a919b&quot;&gt;内核空间&lt;/font&gt;" style="text;html=1;strokeColor=none;fillColor=none;align=center;verticalAlign=middle;whiteSpace=wrap;rounded=0;dashed=1;strokeWidth=5;fontSize=34;" parent="1" vertex="1">
          <mxGeometry x="551.5" y="354" width="194" height="30" as="geometry" />
        </mxCell>
        <mxCell id="b5SYevpUY-iunILn3kil-7" value="" style="shape=image;verticalLabelPosition=bottom;labelBackgroundColor=default;verticalAlign=top;aspect=fixed;imageAspect=0;image=data:image/svg+xml,PHN2ZyB4bWxuczp4bGluaz0iaHR0cDovL3d3dy53My5vcmcvMTk5OS94bGluayIgeG1sbnM9Imh0dHA6Ly93d3cudzMub3JnLzIwMDAvc3ZnIiBoZWlnaHQ9IjEyOCIgd2lkdGg9IjEyOCIgdmVyc2lvbj0iMS4xIiB2aWV3Qm94PSIwIDAgMTAyNCAxMDI0IiBjbGFzcz0iaWNvbiI+PHBhdGggZmlsbD0iIzRBOTE5QiIgZD0iTTgzMiAxMDYuNjY2NjY3SDE5MkMxNDUuMDY2NjY3IDEwNi42NjY2NjcgMTA2LjY2NjY2NyAxNDUuMDY2NjY3IDEwNi42NjY2NjcgMTkydjEyOGg4MTAuNjY2NjY2VjE5MmMwLTQ2LjkzMzMzMy0zOC40LTg1LjMzMzMzMy04NS4zMzMzMzMtODUuMzMzMzMzek0yMDIuNjY2NjY3IDI1NmMtMTcuMDY2NjY3IDAtMzItMTQuOTMzMzMzLTMyLTMyUzE4NS42IDE5MiAyMDIuNjY2NjY3IDE5MnMzMiAxNC45MzMzMzMgMzIgMzItMTQuOTMzMzMzIDMyLTMyIDMyeiBtMTA2LjY2NjY2NiAwYy0xNy4wNjY2NjcgMC0zMi0xNC45MzMzMzMtMzItMzJTMjkyLjI2NjY2NyAxOTIgMzA5LjMzMzMzMyAxOTJzMzIgMTQuOTMzMzMzIDMyIDMyLTE0LjkzMzMzMyAzMi0zMiAzMnogbTEwNi42NjY2NjcgMGMtMTcuMDY2NjY3IDAtMzItMTQuOTMzMzMzLTMyLTMyUzM5OC45MzMzMzMgMTkyIDQxNiAxOTJzMzIgMTQuOTMzMzMzIDMyIDMyLTE0LjkzMzMzMyAzMi0zMiAzMnpNMTA2LjY2NjY2NyA4MzJjMCA0Ni45MzMzMzMgMzguNCA4NS4zMzMzMzMgODUuMzMzMzMzIDg1LjMzMzMzM2g2NDBjNDYuOTMzMzMzIDAgODUuMzMzMzMzLTM4LjQgODUuMzMzMzMzLTg1LjMzMzMzM1YzODRIMTA2LjY2NjY2N3Y0NDh6IG0yNjYuNjY2NjY2LTY0aC0xMDYuNjY2NjY2Yy0xNy4wNjY2NjcgMC0zMi0xNC45MzMzMzMtMzItMzJzMTQuOTMzMzMzLTMyIDMyLTMyaDEwNi42NjY2NjZjMTcuMDY2NjY3IDAgMzIgMTQuOTMzMzMzIDMyIDMycy0xNC45MzMzMzMgMzItMzIgMzJ6IG0xNzAuNjY2NjY3LTI3Ny4zMzMzMzNoMjEzLjMzMzMzM2MxNy4wNjY2NjcgMCAzMiAxNC45MzMzMzMgMzIgMzJzLTE0LjkzMzMzMyAzMi0zMiAzMmgtMjEzLjMzMzMzM2MtMTcuMDY2NjY3IDAtMzItMTQuOTMzMzMzLTMyLTMyczE0LjkzMzMzMy0zMiAzMi0zMnogbTAgMTA2LjY2NjY2NmgyMTMuMzMzMzMzYzE3LjA2NjY2NyAwIDMyIDE0LjkzMzMzMyAzMiAzMnMtMTQuOTMzMzMzIDMyLTMyIDMyaC0yMTMuMzMzMzMzYy0xNy4wNjY2NjcgMC0zMi0xNC45MzMzMzMtMzItMzJzMTQuOTMzMzMzLTMyIDMyLTMyeiBtMCAxMDYuNjY2NjY3aDIxMy4zMzMzMzNjMTcuMDY2NjY3IDAgMzIgMTQuOTMzMzMzIDMyIDMycy0xNC45MzMzMzMgMzItMzIgMzJoLTIxMy4zMzMzMzNjLTE3LjA2NjY2NyAwLTMyLTE0LjkzMzMzMy0zMi0zMnMxNC45MzMzMzMtMzIgMzItMzJ6IG0tMzA3LjItMTYwYzEyLjgtMTIuOCAzMi0xMi44IDQ0LjggMGwzOC40IDM4LjQgODMuMi04My4yYzEyLjgtMTIuOCAzMi0xMi44IDQ0LjggMCAxMi44IDEyLjggMTIuOCAzMiAwIDQ0LjhsLTEwNi42NjY2NjcgMTA0LjUzMzMzM2MtMTIuOCAxMi44LTMyIDEyLjgtNDQuOCAwbC01OS43MzMzMzMtNTkuNzMzMzMzYy0xMi44LTEyLjgtMTIuOC0zMiAwLTQ0Ljh6Ii8+PC9zdmc+;" parent="1" vertex="1">
          <mxGeometry x="169" y="109" width="112" height="112" as="geometry" />
        </mxCell>
        <mxCell id="b5SYevpUY-iunILn3kil-8" value="&lt;font style=&quot;font-size: 33px;&quot; color=&quot;#4a919b&quot;&gt;进程&lt;/font&gt;" style="text;html=1;strokeColor=none;fillColor=none;align=center;verticalAlign=middle;whiteSpace=wrap;rounded=0;dashed=1;strokeWidth=5;fontSize=34;" parent="1" vertex="1">
          <mxGeometry x="175" y="227" width="103" height="30" as="geometry" />
        </mxCell>
        <mxCell id="b5SYevpUY-iunILn3kil-9" value="" style="shape=image;verticalLabelPosition=bottom;labelBackgroundColor=default;verticalAlign=top;aspect=fixed;imageAspect=0;image=data:image/svg+xml,PHN2ZyB4bWxuczp4bGluaz0iaHR0cDovL3d3dy53My5vcmcvMTk5OS94bGluayIgeG1sbnM9Imh0dHA6Ly93d3cudzMub3JnLzIwMDAvc3ZnIiBoZWlnaHQ9IjEyOCIgd2lkdGg9IjEyOCIgdmVyc2lvbj0iMS4xIiB2aWV3Qm94PSIwIDAgMTAyNCAxMDI0IiBjbGFzcz0iaWNvbiI+PHBhdGggZmlsbD0iIzRBOTE5QiIgZD0iTTgzMiAxMDYuNjY2NjY3SDE5MkMxNDUuMDY2NjY3IDEwNi42NjY2NjcgMTA2LjY2NjY2NyAxNDUuMDY2NjY3IDEwNi42NjY2NjcgMTkydjEyOGg4MTAuNjY2NjY2VjE5MmMwLTQ2LjkzMzMzMy0zOC40LTg1LjMzMzMzMy04NS4zMzMzMzMtODUuMzMzMzMzek0yMDIuNjY2NjY3IDI1NmMtMTcuMDY2NjY3IDAtMzItMTQuOTMzMzMzLTMyLTMyUzE4NS42IDE5MiAyMDIuNjY2NjY3IDE5MnMzMiAxNC45MzMzMzMgMzIgMzItMTQuOTMzMzMzIDMyLTMyIDMyeiBtMTA2LjY2NjY2NiAwYy0xNy4wNjY2NjcgMC0zMi0xNC45MzMzMzMtMzItMzJTMjkyLjI2NjY2NyAxOTIgMzA5LjMzMzMzMyAxOTJzMzIgMTQuOTMzMzMzIDMyIDMyLTE0LjkzMzMzMyAzMi0zMiAzMnogbTEwNi42NjY2NjcgMGMtMTcuMDY2NjY3IDAtMzItMTQuOTMzMzMzLTMyLTMyUzM5OC45MzMzMzMgMTkyIDQxNiAxOTJzMzIgMTQuOTMzMzMzIDMyIDMyLTE0LjkzMzMzMyAzMi0zMiAzMnpNMTA2LjY2NjY2NyA4MzJjMCA0Ni45MzMzMzMgMzguNCA4NS4zMzMzMzMgODUuMzMzMzMzIDg1LjMzMzMzM2g2NDBjNDYuOTMzMzMzIDAgODUuMzMzMzMzLTM4LjQgODUuMzMzMzMzLTg1LjMzMzMzM1YzODRIMTA2LjY2NjY2N3Y0NDh6IG0yNjYuNjY2NjY2LTY0aC0xMDYuNjY2NjY2Yy0xNy4wNjY2NjcgMC0zMi0xNC45MzMzMzMtMzItMzJzMTQuOTMzMzMzLTMyIDMyLTMyaDEwNi42NjY2NjZjMTcuMDY2NjY3IDAgMzIgMTQuOTMzMzMzIDMyIDMycy0xNC45MzMzMzMgMzItMzIgMzJ6IG0xNzAuNjY2NjY3LTI3Ny4zMzMzMzNoMjEzLjMzMzMzM2MxNy4wNjY2NjcgMCAzMiAxNC45MzMzMzMgMzIgMzJzLTE0LjkzMzMzMyAzMi0zMiAzMmgtMjEzLjMzMzMzM2MtMTcuMDY2NjY3IDAtMzItMTQuOTMzMzMzLTMyLTMyczE0LjkzMzMzMy0zMiAzMi0zMnogbTAgMTA2LjY2NjY2NmgyMTMuMzMzMzMzYzE3LjA2NjY2NyAwIDMyIDE0LjkzMzMzMyAzMiAzMnMtMTQuOTMzMzMzIDMyLTMyIDMyaC0yMTMuMzMzMzMzYy0xNy4wNjY2NjcgMC0zMi0xNC45MzMzMzMtMzItMzJzMTQuOTMzMzMzLTMyIDMyLTMyeiBtMCAxMDYuNjY2NjY3aDIxMy4zMzMzMzNjMTcuMDY2NjY3IDAgMzIgMTQuOTMzMzMzIDMyIDMycy0xNC45MzMzMzMgMzItMzIgMzJoLTIxMy4zMzMzMzNjLTE3LjA2NjY2NyAwLTMyLTE0LjkzMzMzMy0zMi0zMnMxNC45MzMzMzMtMzIgMzItMzJ6IG0tMzA3LjItMTYwYzEyLjgtMTIuOCAzMi0xMi44IDQ0LjggMGwzOC40IDM4LjQgODMuMi04My4yYzEyLjgtMTIuOCAzMi0xMi44IDQ0LjggMCAxMi44IDEyLjggMTIuOCAzMiAwIDQ0LjhsLTEwNi42NjY2NjcgMTA0LjUzMzMzM2MtMTIuOCAxMi44LTMyIDEyLjgtNDQuOCAwbC01OS43MzMzMzMtNTkuNzMzMzMzYy0xMi44LTEyLjgtMTIuOC0zMiAwLTQ0Ljh6Ii8+PC9zdmc+;" parent="1" vertex="1">
          <mxGeometry x="307" y="109" width="112" height="112" as="geometry" />
        </mxCell>
        <mxCell id="b5SYevpUY-iunILn3kil-10" value="&lt;font style=&quot;font-size: 33px;&quot; color=&quot;#4a919b&quot;&gt;进程&lt;/font&gt;" style="text;html=1;strokeColor=none;fillColor=none;align=center;verticalAlign=middle;whiteSpace=wrap;rounded=0;dashed=1;strokeWidth=5;fontSize=34;" parent="1" vertex="1">
          <mxGeometry x="313" y="227" width="103" height="30" as="geometry" />
        </mxCell>
        <mxCell id="b5SYevpUY-iunILn3kil-11" value="" style="shape=image;verticalLabelPosition=bottom;labelBackgroundColor=default;verticalAlign=top;aspect=fixed;imageAspect=0;image=data:image/svg+xml,PHN2ZyB4bWxuczp4bGluaz0iaHR0cDovL3d3dy53My5vcmcvMTk5OS94bGluayIgeG1sbnM9Imh0dHA6Ly93d3cudzMub3JnLzIwMDAvc3ZnIiBoZWlnaHQ9IjEyOCIgd2lkdGg9IjEyOCIgdmVyc2lvbj0iMS4xIiB2aWV3Qm94PSIwIDAgMTAyNCAxMDI0IiBjbGFzcz0iaWNvbiI+PHBhdGggZmlsbD0iIzRBOTE5QiIgZD0iTTgzMiAxMDYuNjY2NjY3SDE5MkMxNDUuMDY2NjY3IDEwNi42NjY2NjcgMTA2LjY2NjY2NyAxNDUuMDY2NjY3IDEwNi42NjY2NjcgMTkydjEyOGg4MTAuNjY2NjY2VjE5MmMwLTQ2LjkzMzMzMy0zOC40LTg1LjMzMzMzMy04NS4zMzMzMzMtODUuMzMzMzMzek0yMDIuNjY2NjY3IDI1NmMtMTcuMDY2NjY3IDAtMzItMTQuOTMzMzMzLTMyLTMyUzE4NS42IDE5MiAyMDIuNjY2NjY3IDE5MnMzMiAxNC45MzMzMzMgMzIgMzItMTQuOTMzMzMzIDMyLTMyIDMyeiBtMTA2LjY2NjY2NiAwYy0xNy4wNjY2NjcgMC0zMi0xNC45MzMzMzMtMzItMzJTMjkyLjI2NjY2NyAxOTIgMzA5LjMzMzMzMyAxOTJzMzIgMTQuOTMzMzMzIDMyIDMyLTE0LjkzMzMzMyAzMi0zMiAzMnogbTEwNi42NjY2NjcgMGMtMTcuMDY2NjY3IDAtMzItMTQuOTMzMzMzLTMyLTMyUzM5OC45MzMzMzMgMTkyIDQxNiAxOTJzMzIgMTQuOTMzMzMzIDMyIDMyLTE0LjkzMzMzMyAzMi0zMiAzMnpNMTA2LjY2NjY2NyA4MzJjMCA0Ni45MzMzMzMgMzguNCA4NS4zMzMzMzMgODUuMzMzMzMzIDg1LjMzMzMzM2g2NDBjNDYuOTMzMzMzIDAgODUuMzMzMzMzLTM4LjQgODUuMzMzMzMzLTg1LjMzMzMzM1YzODRIMTA2LjY2NjY2N3Y0NDh6IG0yNjYuNjY2NjY2LTY0aC0xMDYuNjY2NjY2Yy0xNy4wNjY2NjcgMC0zMi0xNC45MzMzMzMtMzItMzJzMTQuOTMzMzMzLTMyIDMyLTMyaDEwNi42NjY2NjZjMTcuMDY2NjY3IDAgMzIgMTQuOTMzMzMzIDMyIDMycy0xNC45MzMzMzMgMzItMzIgMzJ6IG0xNzAuNjY2NjY3LTI3Ny4zMzMzMzNoMjEzLjMzMzMzM2MxNy4wNjY2NjcgMCAzMiAxNC45MzMzMzMgMzIgMzJzLTE0LjkzMzMzMyAzMi0zMiAzMmgtMjEzLjMzMzMzM2MtMTcuMDY2NjY3IDAtMzItMTQuOTMzMzMzLTMyLTMyczE0LjkzMzMzMy0zMiAzMi0zMnogbTAgMTA2LjY2NjY2NmgyMTMuMzMzMzMzYzE3LjA2NjY2NyAwIDMyIDE0LjkzMzMzMyAzMiAzMnMtMTQuOTMzMzMzIDMyLTMyIDMyaC0yMTMuMzMzMzMzYy0xNy4wNjY2NjcgMC0zMi0xNC45MzMzMzMtMzItMzJzMTQuOTMzMzMzLTMyIDMyLTMyeiBtMCAxMDYuNjY2NjY3aDIxMy4zMzMzMzNjMTcuMDY2NjY3IDAgMzIgMTQuOTMzMzMzIDMyIDMycy0xNC45MzMzMzMgMzItMzIgMzJoLTIxMy4zMzMzMzNjLTE3LjA2NjY2NyAwLTMyLTE0LjkzMzMzMy0zMi0zMnMxNC45MzMzMzMtMzIgMzItMzJ6IG0tMzA3LjItMTYwYzEyLjgtMTIuOCAzMi0xMi44IDQ0LjggMGwzOC40IDM4LjQgODMuMi04My4yYzEyLjgtMTIuOCAzMi0xMi44IDQ0LjggMCAxMi44IDEyLjggMTIuOCAzMiAwIDQ0LjhsLTEwNi42NjY2NjcgMTA0LjUzMzMzM2MtMTIuOCAxMi44LTMyIDEyLjgtNDQuOCAwbC01OS43MzMzMzMtNTkuNzMzMzMzYy0xMi44LTEyLjgtMTIuOC0zMiAwLTQ0Ljh6Ii8+PC9zdmc+;" parent="1" vertex="1">
          <mxGeometry x="449" y="109" width="112" height="112" as="geometry" />
        </mxCell>
        <mxCell id="b5SYevpUY-iunILn3kil-12" value="&lt;font style=&quot;font-size: 33px;&quot; color=&quot;#4a919b&quot;&gt;进程&lt;/font&gt;" style="text;html=1;strokeColor=none;fillColor=none;align=center;verticalAlign=middle;whiteSpace=wrap;rounded=0;dashed=1;strokeWidth=5;fontSize=34;" parent="1" vertex="1">
          <mxGeometry x="455" y="227" width="103" height="30" as="geometry" />
        </mxCell>
        <mxCell id="b5SYevpUY-iunILn3kil-13" value="" style="shape=image;verticalLabelPosition=bottom;labelBackgroundColor=default;verticalAlign=top;aspect=fixed;imageAspect=0;image=data:image/svg+xml,PHN2ZyB4bWxuczp4bGluaz0iaHR0cDovL3d3dy53My5vcmcvMTk5OS94bGluayIgeG1sbnM9Imh0dHA6Ly93d3cudzMub3JnLzIwMDAvc3ZnIiBoZWlnaHQ9IjEyOCIgd2lkdGg9IjEyOCIgdmVyc2lvbj0iMS4xIiB2aWV3Qm94PSIwIDAgMTAyNCAxMDI0IiBjbGFzcz0iaWNvbiI+PHBhdGggZmlsbD0iIzRBOTE5QiIgZD0iTTgzMiAxMDYuNjY2NjY3SDE5MkMxNDUuMDY2NjY3IDEwNi42NjY2NjcgMTA2LjY2NjY2NyAxNDUuMDY2NjY3IDEwNi42NjY2NjcgMTkydjEyOGg4MTAuNjY2NjY2VjE5MmMwLTQ2LjkzMzMzMy0zOC40LTg1LjMzMzMzMy04NS4zMzMzMzMtODUuMzMzMzMzek0yMDIuNjY2NjY3IDI1NmMtMTcuMDY2NjY3IDAtMzItMTQuOTMzMzMzLTMyLTMyUzE4NS42IDE5MiAyMDIuNjY2NjY3IDE5MnMzMiAxNC45MzMzMzMgMzIgMzItMTQuOTMzMzMzIDMyLTMyIDMyeiBtMTA2LjY2NjY2NiAwYy0xNy4wNjY2NjcgMC0zMi0xNC45MzMzMzMtMzItMzJTMjkyLjI2NjY2NyAxOTIgMzA5LjMzMzMzMyAxOTJzMzIgMTQuOTMzMzMzIDMyIDMyLTE0LjkzMzMzMyAzMi0zMiAzMnogbTEwNi42NjY2NjcgMGMtMTcuMDY2NjY3IDAtMzItMTQuOTMzMzMzLTMyLTMyUzM5OC45MzMzMzMgMTkyIDQxNiAxOTJzMzIgMTQuOTMzMzMzIDMyIDMyLTE0LjkzMzMzMyAzMi0zMiAzMnpNMTA2LjY2NjY2NyA4MzJjMCA0Ni45MzMzMzMgMzguNCA4NS4zMzMzMzMgODUuMzMzMzMzIDg1LjMzMzMzM2g2NDBjNDYuOTMzMzMzIDAgODUuMzMzMzMzLTM4LjQgODUuMzMzMzMzLTg1LjMzMzMzM1YzODRIMTA2LjY2NjY2N3Y0NDh6IG0yNjYuNjY2NjY2LTY0aC0xMDYuNjY2NjY2Yy0xNy4wNjY2NjcgMC0zMi0xNC45MzMzMzMtMzItMzJzMTQuOTMzMzMzLTMyIDMyLTMyaDEwNi42NjY2NjZjMTcuMDY2NjY3IDAgMzIgMTQuOTMzMzMzIDMyIDMycy0xNC45MzMzMzMgMzItMzIgMzJ6IG0xNzAuNjY2NjY3LTI3Ny4zMzMzMzNoMjEzLjMzMzMzM2MxNy4wNjY2NjcgMCAzMiAxNC45MzMzMzMgMzIgMzJzLTE0LjkzMzMzMyAzMi0zMiAzMmgtMjEzLjMzMzMzM2MtMTcuMDY2NjY3IDAtMzItMTQuOTMzMzMzLTMyLTMyczE0LjkzMzMzMy0zMiAzMi0zMnogbTAgMTA2LjY2NjY2NmgyMTMuMzMzMzMzYzE3LjA2NjY2NyAwIDMyIDE0LjkzMzMzMyAzMiAzMnMtMTQuOTMzMzMzIDMyLTMyIDMyaC0yMTMuMzMzMzMzYy0xNy4wNjY2NjcgMC0zMi0xNC45MzMzMzMtMzItMzJzMTQuOTMzMzMzLTMyIDMyLTMyeiBtMCAxMDYuNjY2NjY3aDIxMy4zMzMzMzNjMTcuMDY2NjY3IDAgMzIgMTQuOTMzMzMzIDMyIDMycy0xNC45MzMzMzMgMzItMzIgMzJoLTIxMy4zMzMzMzNjLTE3LjA2NjY2NyAwLTMyLTE0LjkzMzMzMy0zMi0zMnMxNC45MzMzMzMtMzIgMzItMzJ6IG0tMzA3LjItMTYwYzEyLjgtMTIuOCAzMi0xMi44IDQ0LjggMGwzOC40IDM4LjQgODMuMi04My4yYzEyLjgtMTIuOCAzMi0xMi44IDQ0LjggMCAxMi44IDEyLjggMTIuOCAzMiAwIDQ0LjhsLTEwNi42NjY2NjcgMTA0LjUzMzMzM2MtMTIuOCAxMi44LTMyIDEyLjgtNDQuOCAwbC01OS43MzMzMzMtNTkuNzMzMzMzYy0xMi44LTEyLjgtMTIuOC0zMiAwLTQ0Ljh6Ii8+PC9zdmc+;" parent="1" vertex="1">
          <mxGeometry x="449" y="109" width="112" height="112" as="geometry" />
        </mxCell>
        <mxCell id="b5SYevpUY-iunILn3kil-14" value="&lt;font style=&quot;font-size: 33px;&quot; color=&quot;#4a919b&quot;&gt;进程&lt;/font&gt;" style="text;html=1;strokeColor=none;fillColor=none;align=center;verticalAlign=middle;whiteSpace=wrap;rounded=0;dashed=1;strokeWidth=5;fontSize=34;" parent="1" vertex="1">
          <mxGeometry x="455" y="227" width="103" height="30" as="geometry" />
        </mxCell>
        <mxCell id="b5SYevpUY-iunILn3kil-15" value="" style="shape=image;verticalLabelPosition=bottom;labelBackgroundColor=default;verticalAlign=top;aspect=fixed;imageAspect=0;image=data:image/svg+xml,PHN2ZyB4bWxuczp4bGluaz0iaHR0cDovL3d3dy53My5vcmcvMTk5OS94bGluayIgeG1sbnM9Imh0dHA6Ly93d3cudzMub3JnLzIwMDAvc3ZnIiBoZWlnaHQ9IjEyOCIgd2lkdGg9IjEyOCIgdmVyc2lvbj0iMS4xIiB2aWV3Qm94PSIwIDAgMTAyNCAxMDI0IiBjbGFzcz0iaWNvbiI+PHBhdGggZmlsbD0iIzRBOTE5QiIgZD0iTTgzMiAxMDYuNjY2NjY3SDE5MkMxNDUuMDY2NjY3IDEwNi42NjY2NjcgMTA2LjY2NjY2NyAxNDUuMDY2NjY3IDEwNi42NjY2NjcgMTkydjEyOGg4MTAuNjY2NjY2VjE5MmMwLTQ2LjkzMzMzMy0zOC40LTg1LjMzMzMzMy04NS4zMzMzMzMtODUuMzMzMzMzek0yMDIuNjY2NjY3IDI1NmMtMTcuMDY2NjY3IDAtMzItMTQuOTMzMzMzLTMyLTMyUzE4NS42IDE5MiAyMDIuNjY2NjY3IDE5MnMzMiAxNC45MzMzMzMgMzIgMzItMTQuOTMzMzMzIDMyLTMyIDMyeiBtMTA2LjY2NjY2NiAwYy0xNy4wNjY2NjcgMC0zMi0xNC45MzMzMzMtMzItMzJTMjkyLjI2NjY2NyAxOTIgMzA5LjMzMzMzMyAxOTJzMzIgMTQuOTMzMzMzIDMyIDMyLTE0LjkzMzMzMyAzMi0zMiAzMnogbTEwNi42NjY2NjcgMGMtMTcuMDY2NjY3IDAtMzItMTQuOTMzMzMzLTMyLTMyUzM5OC45MzMzMzMgMTkyIDQxNiAxOTJzMzIgMTQuOTMzMzMzIDMyIDMyLTE0LjkzMzMzMyAzMi0zMiAzMnpNMTA2LjY2NjY2NyA4MzJjMCA0Ni45MzMzMzMgMzguNCA4NS4zMzMzMzMgODUuMzMzMzMzIDg1LjMzMzMzM2g2NDBjNDYuOTMzMzMzIDAgODUuMzMzMzMzLTM4LjQgODUuMzMzMzMzLTg1LjMzMzMzM1YzODRIMTA2LjY2NjY2N3Y0NDh6IG0yNjYuNjY2NjY2LTY0aC0xMDYuNjY2NjY2Yy0xNy4wNjY2NjcgMC0zMi0xNC45MzMzMzMtMzItMzJzMTQuOTMzMzMzLTMyIDMyLTMyaDEwNi42NjY2NjZjMTcuMDY2NjY3IDAgMzIgMTQuOTMzMzMzIDMyIDMycy0xNC45MzMzMzMgMzItMzIgMzJ6IG0xNzAuNjY2NjY3LTI3Ny4zMzMzMzNoMjEzLjMzMzMzM2MxNy4wNjY2NjcgMCAzMiAxNC45MzMzMzMgMzIgMzJzLTE0LjkzMzMzMyAzMi0zMiAzMmgtMjEzLjMzMzMzM2MtMTcuMDY2NjY3IDAtMzItMTQuOTMzMzMzLTMyLTMyczE0LjkzMzMzMy0zMiAzMi0zMnogbTAgMTA2LjY2NjY2NmgyMTMuMzMzMzMzYzE3LjA2NjY2NyAwIDMyIDE0LjkzMzMzMyAzMiAzMnMtMTQuOTMzMzMzIDMyLTMyIDMyaC0yMTMuMzMzMzMzYy0xNy4wNjY2NjcgMC0zMi0xNC45MzMzMzMtMzItMzJzMTQuOTMzMzMzLTMyIDMyLTMyeiBtMCAxMDYuNjY2NjY3aDIxMy4zMzMzMzNjMTcuMDY2NjY3IDAgMzIgMTQuOTMzMzMzIDMyIDMycy0xNC45MzMzMzMgMzItMzIgMzJoLTIxMy4zMzMzMzNjLTE3LjA2NjY2NyAwLTMyLTE0LjkzMzMzMy0zMi0zMnMxNC45MzMzMzMtMzIgMzItMzJ6IG0tMzA3LjItMTYwYzEyLjgtMTIuOCAzMi0xMi44IDQ0LjggMGwzOC40IDM4LjQgODMuMi04My4yYzEyLjgtMTIuOCAzMi0xMi44IDQ0LjggMCAxMi44IDEyLjggMTIuOCAzMiAwIDQ0LjhsLTEwNi42NjY2NjcgMTA0LjUzMzMzM2MtMTIuOCAxMi44LTMyIDEyLjgtNDQuOCAwbC01OS43MzMzMzMtNTkuNzMzMzMzYy0xMi44LTEyLjgtMTIuOC0zMiAwLTQ0Ljh6Ii8+PC9zdmc+;" parent="1" vertex="1">
          <mxGeometry x="591" y="109" width="112" height="112" as="geometry" />
        </mxCell>
        <mxCell id="b5SYevpUY-iunILn3kil-16" value="&lt;font style=&quot;font-size: 33px;&quot; color=&quot;#4a919b&quot;&gt;进程&lt;/font&gt;" style="text;html=1;strokeColor=none;fillColor=none;align=center;verticalAlign=middle;whiteSpace=wrap;rounded=0;dashed=1;strokeWidth=5;fontSize=34;" parent="1" vertex="1">
          <mxGeometry x="597" y="227" width="103" height="30" as="geometry" />
        </mxCell>
        <mxCell id="b5SYevpUY-iunILn3kil-17" value="&lt;font color=&quot;#eff1f3&quot;&gt;&lt;span style=&quot;font-size: 34px;&quot;&gt;硬件&lt;/span&gt;&lt;/font&gt;" style="rounded=1;whiteSpace=wrap;html=1;fillColor=#4A919B;strokeColor=none;arcSize=20;" parent="1" vertex="1">
          <mxGeometry x="133" y="833" width="607" height="102" as="geometry" />
        </mxCell>
        <mxCell id="b5SYevpUY-iunILn3kil-18" value="" style="endArrow=none;html=1;strokeWidth=4;rounded=1;fontSize=23;fontColor=#808080;fillColor=#FDD276;strokeColor=#7EC4C3;" parent="1" edge="1">
          <mxGeometry width="50" height="50" relative="1" as="geometry">
            <mxPoint x="334" y="795" as="sourcePoint" />
            <mxPoint x="710" y="795" as="targetPoint" />
          </mxGeometry>
        </mxCell>
        <mxCell id="b5SYevpUY-iunILn3kil-19" value="" style="endArrow=classic;html=1;rounded=1;strokeColor=#538AAF;strokeWidth=4;fontSize=26;fontColor=#35699A;fillColor=#FDD276;" parent="1" edge="1">
          <mxGeometry width="50" height="50" relative="1" as="geometry">
            <mxPoint x="551" y="505" as="sourcePoint" />
            <mxPoint x="551" y="710" as="targetPoint" />
          </mxGeometry>
        </mxCell>
        <mxCell id="b5SYevpUY-iunILn3kil-20" value="" style="endArrow=none;html=1;strokeWidth=4;rounded=1;fontSize=23;fontColor=#808080;fillColor=#FDD276;strokeColor=#538AAF;" parent="1" edge="1">
          <mxGeometry width="50" height="50" relative="1" as="geometry">
            <mxPoint x="320" y="713" as="sourcePoint" />
            <mxPoint x="552" y="713" as="targetPoint" />
          </mxGeometry>
        </mxCell>
        <mxCell id="b5SYevpUY-iunILn3kil-21" value="" style="endArrow=none;html=1;strokeWidth=4;rounded=1;fontSize=23;fontColor=#808080;fillColor=#FDD276;strokeColor=#35699A;" parent="1" edge="1">
          <mxGeometry width="50" height="50" relative="1" as="geometry">
            <mxPoint x="330" y="633" as="sourcePoint" />
            <mxPoint x="395" y="633" as="targetPoint" />
          </mxGeometry>
        </mxCell>
        <mxCell id="b5SYevpUY-iunILn3kil-22" value="" style="endArrow=none;html=1;strokeWidth=4;rounded=1;fontSize=23;fontColor=#808080;fillColor=#FDD276;strokeColor=#123F67;" parent="1" edge="1">
          <mxGeometry width="50" height="50" relative="1" as="geometry">
            <mxPoint x="330" y="501.0000000000002" as="sourcePoint" />
            <mxPoint x="711" y="501.0000000000002" as="targetPoint" />
          </mxGeometry>
        </mxCell>
        <mxCell id="b5SYevpUY-iunILn3kil-23" value="&lt;span style=&quot;color: rgb(239, 241, 243); font-size: 20px;&quot;&gt;tcp_sock&lt;/span&gt;" style="rounded=1;whiteSpace=wrap;html=1;fillColor=#7EC4C3;strokeColor=none;" parent="1" vertex="1">
          <mxGeometry x="168" y="497" width="169" height="314.25" as="geometry" />
        </mxCell>
        <mxCell id="b5SYevpUY-iunILn3kil-24" value="&lt;span style=&quot;color: rgb(239, 241, 243);&quot;&gt;&lt;font style=&quot;font-size: 16px;&quot;&gt;inet_connection_sock&lt;/font&gt;&lt;/span&gt;" style="rounded=1;whiteSpace=wrap;html=1;fillColor=#538AAF;strokeColor=none;" parent="1" vertex="1">
          <mxGeometry x="168" y="497" width="169" height="236.25" as="geometry" />
        </mxCell>
        <mxCell id="b5SYevpUY-iunILn3kil-25" value="" style="rounded=1;whiteSpace=wrap;html=1;fillColor=#35699A;strokeColor=none;" parent="1" vertex="1">
          <mxGeometry x="168" y="498" width="169" height="156.75" as="geometry" />
        </mxCell>
        <mxCell id="b5SYevpUY-iunILn3kil-26" value="&lt;font style=&quot;font-size: 20px;&quot; color=&quot;#eff1f3&quot;&gt;sock&lt;/font&gt;" style="rounded=1;whiteSpace=wrap;html=1;fillColor=#123F67;strokeColor=none;arcSize=20;" parent="1" vertex="1">
          <mxGeometry x="168" y="497.75" width="169" height="78.5" as="geometry" />
        </mxCell>
        <mxCell id="b5SYevpUY-iunILn3kil-27" value="" style="shape=flexArrow;endArrow=classic;html=1;rounded=0;fontSize=16;fontColor=#EFF1F3;fillColor=#FDD276;strokeColor=none;" parent="1" edge="1">
          <mxGeometry width="50" height="50" relative="1" as="geometry">
            <mxPoint x="147.00000000000023" y="501.1300000000001" as="sourcePoint" />
            <mxPoint x="147.00000000000023" y="807.1300000000001" as="targetPoint" />
          </mxGeometry>
        </mxCell>
        <mxCell id="b5SYevpUY-iunILn3kil-28" value="&lt;font style=&quot;font-size: 26px;&quot; color=&quot;#538aaf&quot;&gt;inet_connection_sock&lt;/font&gt;" style="text;html=1;strokeColor=none;fillColor=#EFF1F3;align=center;verticalAlign=middle;whiteSpace=wrap;rounded=0;fontSize=23;fontColor=#808080;" parent="1" vertex="1">
          <mxGeometry x="524" y="614" width="60" height="30" as="geometry" />
        </mxCell>
        <mxCell id="b5SYevpUY-iunILn3kil-29" value="" style="endArrow=classic;html=1;rounded=1;strokeColor=#35699A;strokeWidth=4;fontSize=26;fontColor=#35699A;fillColor=#FDD276;" parent="1" edge="1">
          <mxGeometry width="50" height="50" relative="1" as="geometry">
            <mxPoint x="394" y="508" as="sourcePoint" />
            <mxPoint x="394" y="627" as="targetPoint" />
          </mxGeometry>
        </mxCell>
        <mxCell id="b5SYevpUY-iunILn3kil-30" value="&lt;font style=&quot;font-size: 26px;&quot; color=&quot;#35699a&quot;&gt;inet_sock&lt;/font&gt;" style="text;html=1;strokeColor=none;fillColor=#EFF1F3;align=center;verticalAlign=middle;whiteSpace=wrap;rounded=0;fontSize=23;fontColor=#808080;" parent="1" vertex="1">
          <mxGeometry x="375" y="540" width="53" height="36.25" as="geometry" />
        </mxCell>
        <mxCell id="b5SYevpUY-iunILn3kil-31" value="" style="endArrow=classic;html=1;rounded=1;strokeColor=#7EC4C3;strokeWidth=4;fontSize=26;fontColor=#35699A;fillColor=#FDD276;" parent="1" edge="1">
          <mxGeometry width="50" height="50" relative="1" as="geometry">
            <mxPoint x="710" y="508" as="sourcePoint" />
            <mxPoint x="710" y="792" as="targetPoint" />
          </mxGeometry>
        </mxCell>
        <mxCell id="b5SYevpUY-iunILn3kil-32" value="&lt;font style=&quot;font-size: 26px;&quot; color=&quot;#7ec4c3&quot;&gt;tcp_sock&lt;/font&gt;" style="text;html=1;strokeColor=none;fillColor=#EFF1F3;align=center;verticalAlign=middle;whiteSpace=wrap;rounded=0;fontSize=23;fontColor=#808080;" parent="1" vertex="1">
          <mxGeometry x="680" y="664" width="60" height="30" as="geometry" />
        </mxCell>
        <mxCell id="b5SYevpUY-iunILn3kil-33" value="&lt;font style=&quot;font-size: 50px&quot;&gt;应用层&lt;/font&gt;" style="rounded=1;whiteSpace=wrap;html=1;strokeWidth=5;fontColor=#FFFFFF;fillColor=#4A919B;strokeColor=none;" parent="1" vertex="1">
          <mxGeometry x="767" y="60" width="290" height="219" as="geometry" />
        </mxCell>
        <mxCell id="b5SYevpUY-iunILn3kil-34" value="&lt;span style=&quot;font-size: 50px&quot;&gt;网络层&lt;/span&gt;" style="rounded=1;whiteSpace=wrap;html=1;strokeWidth=5;fontColor=#FFFFFF;fillColor=#35699A;strokeColor=none;" parent="1" vertex="1">
          <mxGeometry x="774" y="525" width="290" height="132" as="geometry" />
        </mxCell>
        <mxCell id="b5SYevpUY-iunILn3kil-35" value="&lt;span style=&quot;font-size: 50px&quot;&gt;数据链路层&lt;/span&gt;" style="rounded=1;whiteSpace=wrap;html=1;strokeWidth=5;fontColor=#FFFFFF;fillColor=#4A919B;strokeColor=none;" parent="1" vertex="1">
          <mxGeometry x="774" y="667" width="290" height="130" as="geometry" />
        </mxCell>
        <mxCell id="b5SYevpUY-iunILn3kil-36" value="&lt;span style=&quot;font-size: 50px&quot;&gt;传输层&lt;/span&gt;" style="rounded=1;whiteSpace=wrap;html=1;strokeWidth=5;fontColor=#FFFFFF;fillColor=#7EC4C3;strokeColor=none;" parent="1" vertex="1">
          <mxGeometry x="774" y="371" width="290" height="143" as="geometry" />
        </mxCell>
        <mxCell id="b5SYevpUY-iunILn3kil-37" value="&lt;span style=&quot;font-size: 50px&quot;&gt;物理层&lt;/span&gt;" style="rounded=1;whiteSpace=wrap;html=1;strokeWidth=5;fontColor=#FFFFFF;fillColor=#4A919B;strokeColor=none;" parent="1" vertex="1">
          <mxGeometry x="774" y="807.25" width="290" height="130" as="geometry" />
        </mxCell>
      </root>
    </mxGraphModel>
  </diagram>
</mxfile>
